<?xml version="1.0" encoding="utf-8"?>
<!-- Generator: Adobe Illustrator 24.3.0, SVG Export Plug-In . SVG Version: 6.00 Build 0)  -->
<svg version="1.1" id="Layer_1" xmlns="http://www.w3.org/2000/svg" xmlns:xlink="http://www.w3.org/1999/xlink" x="0px" y="0px"
	 viewBox="0 0 351 365" style="enable-background:new 0 0 351 365;" xml:space="preserve">
<style type="text/css">
	.st0{fill:#A12B2F;}
</style>
<path class="st0" d="M334.9,182.3c0,88-71.4,159.3-159.3,159.3c-88,0-159.4-71.4-159.4-159.3c0-88,71.4-159.4,159.4-159.4
	C263.5,22.9,334.9,94.2,334.9,182.3z M263.8,78c-0.1,0-0.1-0.1-0.1-0.1s-0.6-0.1-0.6-0.1c-25,0-178.8,0-178.8,0H81
	C70.6,79,57.3,90.7,47.9,107.1c-3.6,6.3-6.3,12.9-8.1,19.1c-0.8,2.7-1.4,5.4-1.7,8c4.6-10.7,15.2-18.2,27.5-18.2h0.2
	c0,0,183.9,0,211.3,0c2.2-4,3.4-8.5,3.4-13C280.5,91.9,274,82.1,263.8,78z M41,157.9c0.1,0.1,0.1,0.2,0.1,0.2s0.2,0.5,0.2,0.5
	c12.5,21.7,89.4,154.9,89.4,154.9l1.6,2.8c6.2,8.5,23.1,14.1,41.9,14c7.3,0,14.3-0.9,20.5-2.5c2.8-0.7,5.4-1.5,7.8-2.5
	c-11.6,1.4-23.4-4-29.6-14.7l-0.1-0.2c0,0-92-159.3-105.6-183c-4.6,0.1-9,1.3-13,3.6C44.7,136.5,39.6,147,41,157.9z M221.7,310.8
	C221.7,310.8,221.8,310.8,221.7,310.8c0.1-0.1,0.5-0.6,0.5-0.6c12.5-21.7,89.4-154.9,89.4-154.9l1.6-2.8c4.2-9.6,0.7-27-8.8-43.3
	c-3.7-6.3-8-11.9-12.5-16.5c-2-2-4-3.9-6-5.5c7,9.3,8.3,22.2,2.1,33l-0.1,0.2c0,0-92,159.3-105.6,183c2.4,3.9,5.6,7.2,9.6,9.4
	C201.3,318.4,213,317.6,221.7,310.8z"/>
</svg>
